<svg xmlns="http://www.w3.org/2000/svg" xmlns:xlink="http://www.w3.org/1999/xlink" width="680.846" height="327.363" viewBox="0 0 680.846 327.363">
  <defs>
    <clipPath id="clip-path">
      <path id="Path_170" data-name="Path 170" d="M0,68.2H666.431V-224.691H0Z" transform="translate(0 224.691)" fill="none"/>
    </clipPath>
  </defs>
  <g id="Group_785" data-name="Group 785" transform="translate(3.569 224.383) rotate(3)">
    <g id="Group_784" data-name="Group 784" transform="translate(0 -224.691)" clip-path="url(#clip-path)">
      <g id="Group_782" data-name="Group 782" transform="translate(0.717 0.492)">
        <path id="Path_168" data-name="Path 168" d="M144.391,4.477l-5.017,77.39L127.639,79.05l-22.106-83.9L112-3.3,130.91,71.079l2.812.675,3.924-68.9Zm-45.552-10,8.474,80.63-29.4-4.236-.944-8.984L99.931,65.2,96.97,37.01,76.655,34.083,75.711,25.1l20.314,2.928L93.346,2.534,70.885-.7l-.944-8.984ZM47.025-11.751l15.552,1.337,8.474,80.63-6.48-.558L61.243,37.99l-10.08-.867.613,5.84L43.33,67.832l-7.992-.687,9.745-26.76-.708-6.738c-6.257-4.544-11-12.965-11.987-22.4-1.439-13.7,4.987-23.831,14.636-23M60.3,29.007,57.041-1.988l-9.287-.8C41.2-3.349,38.253.515,39.1,8.6l.684,6.514c.85,8.084,4.67,12.531,11.223,13.094ZM4.91-14.171l16.179.523,8.474,80.63-16.179-.523C.888,66.056-10.727,48-13.1,25.426s5.514-40,18.009-39.6M22.118,57.788,15.532-4.874l-9.606-.31C-3.175-5.479-8.011,3.99-6.428,19.039l1.4,13.362c1.571,14.936,8.436,24.782,17.536,25.077ZM-25-14.752l8.475,80.63-29.7.229-.944-8.984,23.2-.179-2.963-28.187-20.522.159-.945-8.984,20.524-.159-2.68-25.491-22.69.175-.945-8.984Zm-41.36,9.716,5.921-.267,7.529,71.646-5.919.267Zm0,0-3.248.147-9.651,72.425-12.562.57-8.474-80.63,5.991-.272,7.53,71.646,2.6-.117,9.651-72.425,7.22-.327ZM-118.7,71.472c-10.01.854-19.231-9.463-20.683-23.277-1.262-12.016,2.842-19.276,12.675-22.495l3.373-1.081c7.936-2.6,9.908-5.265,9.177-12.227l-.4-3.818C-115.4.6-118.969-2.946-125.594-2.38c-7.705.657-9.968,4.7-9.04,16.294l-7.562.644c-.272-15.045,5.78-25.193,15.645-26.034,9-.768,17.67,9.143,19.005,21.832,1.2,11.455-3.565,20.7-12.352,23.488l-3.375,1.081c-8.572,2.771-10.183,4.721-9.5,11.235l.472,4.492c.91,8.646,5.007,12.375,12.639,11.725,8.425-.718,10.88-5.007,9.93-17.5l7.56-.645c.394,15.49-6.166,26.36-16.534,27.243M-169.081-5.982l15.5-1.825,8.475,80.63-6.46.761-3.328-31.669L-164.94,43.1l.614,5.84-8.41,27.138-7.967.939,9.7-29.338-.708-6.738c-6.239-3.358-10.964-10.987-11.956-20.419-1.439-13.7,4.964-25.369,14.581-26.5m13.245,38.914-3.259-30.993-9.258,1.09c-6.532.769-9.467,5.321-8.617,13.407l.684,6.514c.85,8.086,4.66,11.844,11.191,11.075ZM-205.62,82.015c-12.635,2-24.552-14.727-26.983-37.86s5.638-43.018,18.271-45.015S-189.779,13.866-187.348,37s-5.638,43.017-18.271,45.015m11.7-37.126-1.405-13.364c-1.652-15.722-8.7-24.768-18.048-23.29s-14.3,12.421-12.644,28.143l1.4,13.364c1.629,15.5,8.758,24.644,18.038,23.178s14.285-12.533,12.656-28.031m-55.338-29.571,5.8-1.21,7.53,71.646-5.8,1.21Zm0,0-3.183.663-3.082,73.859-11.6,2.419-18.283-69.4-3.183.663-.945-8.984,7.994-1.667,17.859,69.493,2.547-.532,2.8-73.8,8.136-1.7Zm-31.8,79.848L-287,96.4l-7.53-71.646,5.943-1.24Zm-29.38-66.341,5.708-1.592,7.53,71.646-5.708,1.592Zm0,0-3.132.875-2.912,74.558-11.416,3.184-18.111-68.695-3.132.873-.944-8.984,7.865-2.194,17.694,68.811,2.505-.7,2.633-74.481,8-2.233Zm-31.173,82.442-5.846,1.631-7.53-71.646,5.846-1.631Zm-24.213-75.451,8.474,80.63-27.932,10.1-.945-8.984,21.817-7.886-2.963-28.187-19.3,6.978-.945-8.984,19.3-6.978L-371,47.009l-21.34,7.714-.945-8.984Zm-44.7,26.9,7.507,71.42-5.931,2.668-7.507-71.42-13.774,6.2-.969-9.208,33.481-15.061.967,9.208Zm-65.216,80.024,24.563,101.316,12.742,6.081,4.887-87.259-7.019-3.351-3.551,77.916-3.052-1.456-21.246-89.75Zm50.283,21.088,9.914,94.324,33.786,8.112-1.1-10.509-26.388-6.336-3.466-32.973,23.347,5.605-1.105-10.51-23.346-5.605-3.135-29.822,25.813,6.2-1.105-10.51Zm59.856,11.91-18.088-2.5,9.913,94.324,7.537,1.043-3.894-37.047,11.724,1.622.718,6.832,16.156,32.01,9.3,1.287-18.163-34.619-.828-7.882c6.286-3.792,9.814-12.624,8.654-23.66-1.684-16.028-11.8-29.855-23.025-31.408m-5.635,45.309-3.812-36.258,10.8,1.5c7.62,1.053,12.067,6.459,13.061,15.917l.8,7.62c.995,9.458-2.431,13.774-10.051,12.721Zm54.732-40.366-18.894-1.27,9.913,94.324,18.894,1.27c14.593.98,23.8-19.01,21.023-45.417s-16.343-47.927-30.936-48.908M-319,263.74l-7.705-73.305,11.219.753c10.628.714,18.648,12.472,20.5,30.076l1.644,15.633c1.835,17.472-3.809,28.311-14.438,27.6Zm37.451-81.33,9.914,94.324,34.744.413L-238,266.637l-27.135-.323L-268.6,233.34l24.008.285-1.1-10.51-24.008-.285-3.135-29.82,26.545.315-1.105-10.51Zm50.6,10.6-6.928.237,8.809,83.814,6.928-.236Zm0,0,3.8-.13,28.918,83.127,14.7-.5-9.914-94.326-7.013.241,8.809,83.814-3.041.1L-223.6,182.214l-8.449.288Zm79.161,81.414c11.716-.914,19.8-14.525,18.1-30.685-1.477-14.056-7.966-21.629-20.056-23.467l-4.143-.6c-9.759-1.49-12.675-4.175-13.532-12.321l-.469-4.467c-.98-9.327,2.259-14.083,10.014-14.688,9.018-.7,12.606,3.518,14.365,17.024l8.851-.691c-3.354-17.354-12.787-27.875-24.334-26.975-10.536.823-18.087,13.863-16.527,28.707,1.408,13.4,9.143,23.127,19.927,24.67l4.143.6c10.531,1.562,12.859,3.5,13.661,11.119l.551,5.254c1.064,10.115-2.737,15.181-11.672,15.878-9.861.77-13.73-3.7-15.684-18.245l-8.85.691c3.324,17.885,13.515,29.143,25.652,28.195m38.842-100.552-18.136,2.136,9.913,94.324,7.556-.89-3.894-37.047,11.755-1.384.718,6.832,16.19,28.684,9.319-1.1-18.2-30.841-.829-7.882c6.3-5.529,9.844-15.522,8.684-26.558-1.684-16.027-11.825-27.6-23.076-26.276m-5.664,48.015-3.811-36.258,10.831-1.276c7.641-.9,12.1,3.5,13.092,12.956l.8,7.619c.995,9.46-2.441,14.784-10.081,15.684Zm68.484,40.128c14.762-2.445,24.189-25.792,21.344-52.855s-16.771-46.542-31.533-44.1S-84.5,190.859-81.66,217.921s16.772,46.542,31.534,44.1m-22.2-37.623-1.642-15.633c-1.933-18.392,3.844-31.245,14.77-33.054s19.16,8.722,21.093,27.114l1.644,15.633c1.9,18.129-3.942,31.126-14.784,32.923s-19.175-8.853-21.08-26.983m55.283-55.017L-23.8,170.9l8.809,83.815,6.763-1.522Zm0,0,3.712-.836L7.852,249.573l13.526-3.044L25.1,159.893l3.712-.834-1.105-10.51-9.32,2.1L15.159,237.17l-2.968.669L-8.661,156.733l-9.484,2.134Zm54.668,73.5,6.928-1.559L35.745,157.5l-6.928,1.559Zm16.592-90.684-6.6,2.114,8.809,83.814,6.6-2.114Zm0,0,3.622-1.16,20.887,79.948,13.2-4.229,3.43-87.732,3.622-1.16-1.1-10.51-9.1,2.913-2.946,87.579-2.9.928L62.373,138.715l-9.26,2.964Zm53.575,69.481,6.763-2.165-8.809-83.815-6.764,2.166Zm8.159-101.378,9.913,94.324,31.688-14.255-1.105-10.51L131.7,200.985l-3.466-32.974,21.9-9.851-1.1-10.51-21.9,9.851L124,127.68l24.21-10.891L147.1,106.28ZM168.272,105.4l8.782,83.552,6.377-4.153-8.782-83.552L189.454,91.6,188.321,80.83l-35.986,23.44,1.131,10.772Z" transform="translate(475.744 14.752)" fill="#fff"/>
      </g>
      <g id="Group_783" data-name="Group 783" transform="translate(0.717 0.492)">
        <path id="Path_169" data-name="Path 169" d="M144.391,4.477l-5.017,77.39L127.639,79.05l-22.106-83.9L112-3.3,130.91,71.079l2.812.675,3.924-68.9Zm-45.552-10,8.474,80.63-29.4-4.236-.944-8.984L99.931,65.2,96.97,37.01,76.655,34.083,75.711,25.1l20.314,2.928L93.346,2.534,70.885-.7l-.944-8.984ZM47.025-11.751l15.552,1.337,8.474,80.63-6.48-.558L61.243,37.99l-10.08-.867.613,5.84L43.33,67.832l-7.992-.687,9.745-26.76-.708-6.738c-6.257-4.544-11-12.965-11.987-22.4C30.95-2.451,37.376-12.58,47.025-11.751ZM60.3,29.007,57.041-1.988l-9.287-.8C41.2-3.349,38.253.515,39.1,8.6l.684,6.514c.85,8.084,4.67,12.531,11.223,13.094ZM4.91-14.171l16.179.523,8.474,80.63-16.179-.523C.888,66.056-10.727,48-13.1,25.426S-7.586-14.573,4.91-14.171ZM22.118,57.788,15.532-4.874l-9.606-.31C-3.175-5.479-8.011,3.99-6.428,19.039l1.4,13.362c1.571,14.936,8.436,24.782,17.536,25.077ZM-25-14.752l8.475,80.63-29.7.229-.944-8.984,23.2-.179-2.963-28.187-20.522.159-.945-8.984,20.524-.159-2.68-25.491-22.69.175-.945-8.984Zm-41.36,9.716,5.921-.267,7.529,71.646-5.919.267Zm0,0-3.248.147-9.651,72.425-12.562.57-8.474-80.63,5.991-.272,7.53,71.646,2.6-.117,9.651-72.425,7.22-.327ZM-118.7,71.472c-10.01.854-19.231-9.463-20.683-23.277-1.262-12.016,2.842-19.276,12.675-22.495l3.373-1.081c7.936-2.6,9.908-5.265,9.177-12.227l-.4-3.818C-115.4.6-118.969-2.946-125.594-2.38c-7.705.657-9.968,4.7-9.04,16.294l-7.562.644c-.272-15.045,5.78-25.193,15.645-26.034,9-.768,17.67,9.143,19.005,21.832,1.2,11.455-3.565,20.7-12.352,23.488l-3.375,1.081c-8.572,2.771-10.183,4.721-9.5,11.235l.472,4.492c.91,8.646,5.007,12.375,12.639,11.725,8.425-.718,10.88-5.007,9.93-17.5l7.56-.645C-101.776,59.719-108.335,70.589-118.7,71.472ZM-169.081-5.982l15.5-1.825,8.475,80.63-6.46.761-3.328-31.669L-164.94,43.1l.614,5.84-8.41,27.138-7.967.939,9.7-29.338-.708-6.738c-6.239-3.358-10.964-10.987-11.956-20.419C-185.1,6.818-178.7-4.849-169.081-5.982Zm13.245,38.914-3.259-30.993-9.258,1.09c-6.532.769-9.467,5.321-8.617,13.407l.684,6.514c.85,8.086,4.66,11.844,11.191,11.075ZM-205.62,82.015c-12.635,2-24.552-14.727-26.983-37.86s5.638-43.018,18.271-45.015S-189.779,13.866-187.348,37-192.986,80.017-205.62,82.015Zm11.7-37.126-1.405-13.364c-1.652-15.722-8.7-24.768-18.048-23.29s-14.3,12.421-12.644,28.143l1.4,13.364c1.629,15.5,8.758,24.644,18.038,23.178S-192.291,60.386-193.921,44.889Zm-55.338-29.571,5.8-1.21,7.53,71.646-5.8,1.21Zm0,0-3.183.663-3.082,73.859-11.6,2.419-18.283-69.4-3.183.663-.945-8.984,7.994-1.667,17.859,69.493,2.547-.532,2.8-73.8,8.136-1.7Zm-31.8,79.848L-287,96.4l-7.53-71.646,5.943-1.24Zm-29.38-66.341,5.708-1.592,7.53,71.646-5.708,1.592Zm0,0-3.132.875-2.912,74.558-11.416,3.184-18.111-68.695-3.132.873-.944-8.984,7.865-2.194,17.694,68.811,2.505-.7,2.633-74.481,8-2.233Zm-31.173,82.442-5.846,1.631-7.53-71.646,5.846-1.631Zm-24.213-75.451,8.474,80.63-27.932,10.1-.945-8.984,21.817-7.886-2.963-28.187-19.3,6.978-.945-8.984,19.3-6.978L-371,47.009l-21.34,7.714-.945-8.984Zm-44.7,26.9,7.507,71.42-5.931,2.668-7.507-71.42-13.774,6.2-.969-9.208,33.481-15.061.967,9.208Zm-65.216,80.024,24.563,101.316,12.742,6.081,4.887-87.259-7.019-3.351-3.551,77.916-3.052-1.456-21.246-89.75Zm50.283,21.088,9.914,94.324,33.786,8.112-1.1-10.509-26.388-6.336-3.466-32.973,23.347,5.605-1.105-10.51-23.346-5.605-3.135-29.822,25.813,6.2-1.105-10.51Zm59.856,11.91-18.088-2.5,9.913,94.324,7.537,1.043-3.894-37.047,11.724,1.622.718,6.832,16.156,32.01,9.3,1.287-18.163-34.619-.828-7.882c6.286-3.792,9.814-12.624,8.654-23.66C-344.265,191.121-354.384,177.294-365.606,175.741Zm-5.635,45.309-3.812-36.258,10.8,1.5c7.62,1.053,12.067,6.459,13.061,15.917l.8,7.62c.995,9.458-2.431,13.774-10.051,12.721Zm54.732-40.366-18.894-1.27,9.913,94.324,18.894,1.27c14.593.98,23.8-19.01,21.023-45.417S-301.916,181.664-316.509,180.684ZM-319,263.74l-7.705-73.305,11.219.753c10.628.714,18.648,12.472,20.5,30.076l1.644,15.633c1.835,17.472-3.809,28.311-14.438,27.6Zm37.451-81.33,9.914,94.324,34.744.413L-238,266.637l-27.135-.323L-268.6,233.34l24.008.285-1.1-10.51-24.008-.285-3.135-29.82,26.545.315-1.105-10.51Zm50.6,10.6-6.928.237,8.809,83.814,6.928-.236Zm0,0,3.8-.13,28.918,83.127,14.7-.5-9.914-94.326-7.013.241,8.809,83.814-3.041.1L-223.6,182.214l-8.449.288Zm79.161,81.414c11.716-.914,19.8-14.525,18.1-30.685-1.477-14.056-7.966-21.629-20.056-23.467l-4.143-.6c-9.759-1.49-12.675-4.175-13.532-12.321l-.469-4.467c-.98-9.327,2.259-14.083,10.014-14.688,9.018-.7,12.606,3.518,14.365,17.024l8.851-.691c-3.354-17.354-12.787-27.875-24.334-26.975-10.536.823-18.087,13.863-16.527,28.707,1.408,13.4,9.143,23.127,19.927,24.67l4.143.6c10.531,1.562,12.859,3.5,13.661,11.119l.551,5.254c1.064,10.115-2.737,15.181-11.672,15.878-9.861.77-13.73-3.7-15.684-18.245l-8.85.691C-174.115,264.118-163.924,275.375-151.787,274.427Zm38.842-100.552-18.136,2.136,9.913,94.324,7.556-.89-3.894-37.047,11.755-1.384.718,6.832,16.19,28.684,9.319-1.1-18.2-30.841-.829-7.882c6.3-5.529,9.844-15.522,8.684-26.558C-91.554,184.124-101.7,172.55-112.946,173.874Zm-5.664,48.015-3.811-36.258,10.831-1.276c7.641-.9,12.1,3.5,13.092,12.956l.8,7.619c.995,9.46-2.441,14.784-10.081,15.684Zm68.484,40.128c14.762-2.445,24.189-25.792,21.344-52.855s-16.771-46.542-31.533-44.1S-84.5,190.859-81.66,217.921-64.888,264.463-50.126,262.018Zm-22.2-37.623-1.642-15.633c-1.933-18.392,3.844-31.245,14.77-33.054s19.16,8.722,21.093,27.114l1.644,15.633c1.9,18.129-3.942,31.126-14.784,32.923S-70.419,242.524-72.324,224.395Zm55.283-55.017L-23.8,170.9l8.809,83.815,6.763-1.522Zm0,0,3.712-.836L7.852,249.573l13.526-3.044L25.1,159.893l3.712-.834-1.105-10.51-9.32,2.1L15.159,237.17l-2.968.669L-8.661,156.733l-9.484,2.134Zm54.668,73.5,6.928-1.559L35.745,157.5l-6.928,1.559Zm16.592-90.684-6.6,2.114,8.809,83.814,6.6-2.114Zm0,0,3.622-1.16,20.887,79.948,13.2-4.229,3.43-87.732,3.622-1.16-1.1-10.51-9.1,2.913-2.946,87.579-2.9.928L62.373,138.715l-9.26,2.964Zm53.575,69.481,6.763-2.165-8.809-83.815-6.764,2.166Zm8.159-101.378,9.913,94.324,31.688-14.255-1.105-10.51L131.7,200.985l-3.466-32.974,21.9-9.851-1.1-10.51-21.9,9.851L124,127.68l24.21-10.891L147.1,106.28ZM168.272,105.4l8.782,83.552,6.377-4.153-8.782-83.552L189.454,91.6,188.321,80.83l-35.986,23.44,1.131,10.772Z" transform="translate(475.744 14.752)" fill="none" stroke="#fff" stroke-width="0.75"/>
      </g>
    </g>
  </g>
</svg>
